Coordinates
version=1
nRows=8
nColumns=36
inDegrees=yes

Units are S.I. units (second, meters, Newtons, ...)
If the header above contains a line with 'inDegrees', this indicates whether rotational values are in degrees (yes) or radians (no).

endheader
time	pelvis_tilt	pelvis_list	pelvis_rotation	pelvis_tx	pelvis_ty	pelvis_tz	hip_flexion_r	hip_adduction_r	hip_rotation_r	knee_angle_r	knee_angle_r_beta	ankle_angle_r	subtalar_angle_r	mtp_angle_r	hip_flexion_l	hip_adduction_l	hip_rotation_l	knee_angle_l	knee_angle_l_beta	ankle_angle_l	subtalar_angle_l	mtp_angle_l	lumbar_extension	lumbar_bending	lumbar_rotation	arm_flex_r	arm_add_r	arm_rot_r	elbow_flex_r	pro_sup_r	arm_flex_l	arm_add_l	arm_rot_l	elbow_flex_l	pro_sup_l
      1.55000000	     -4.38683616	      0.86779923	    -10.35181178	     -0.00240303	      1.27356944	      0.03505013	      5.56781907	      2.67639460	      5.06485912	      1.14163267	      0.01992525	      3.79473827	     17.66600789	     -7.49999987	      5.29153857	      0.01605690	     -6.85680718	      0.33892969	      0.00591544	      5.17325035	     12.19227958	     -7.49999987	      9.20524433	     -1.41535080	     -6.48066859	    -15.83118718	     -5.94263924	      6.66189080	     68.25057985	     82.91965319	    -18.43712962	    -12.95014660	     10.52744954	     68.98586409	     94.48734291
      1.56666670	     -4.35001308	      0.88051483	    -10.30037838	     -0.00132623	      1.27535187	      0.03500180	      5.51064887	      2.63531564	      4.94927131	      1.10643675	      0.01931096	      3.95572328	     17.59211020	     -7.49999987	      5.30892434	      0.03513969	     -7.20410052	      0.31906036	      0.00556865	      5.42990638	     12.44960543	     -7.49999987	      9.22485284	     -1.46620595	     -6.51958646	    -15.67899072	     -5.81085251	      6.80803952	     67.47951300	     81.13844655	    -18.06947636	    -12.83591273	     11.01114192	     68.16504922	     91.78550083
      1.58333330	     -4.30778147	      0.85316484	    -10.30392974	     -0.00257765	      1.27142503	      0.03385598	      5.41591655	      2.67585030	      5.11674282	      1.06065859	      0.01851198	      3.99173089	     17.61950024	     -7.49999987	      5.30734220	      0.03486557	     -7.37207427	      0.31278502	      0.00545913	      5.71497146	     12.61253872	     -7.49999987	      9.16498961	     -1.42826702	     -6.32691187	    -15.71324702	     -5.59342247	      6.10997761	     67.06605514	     82.64031051	    -17.49184907	    -12.65786063	     11.22505151	     67.35572406	     94.40200121
      1.60000000	     -4.25222433	      0.85399404	    -10.35891175	     -0.00322760	      1.27054493	      0.03415473	      5.46868633	      2.70702031	      4.92906399	      1.05481902	      0.01841006	      4.25734194	     17.34125259	     -7.49999987	      5.26177674	      0.07353457	     -7.26023798	      0.30392897	      0.00530456	      6.02819010	     12.35913091	     -7.49999987	      9.10217834	     -1.41728062	     -6.39334535	    -15.51598540	     -5.50317780	      6.03823352	     66.51694160	     81.67534211	    -17.19327215	    -12.41659379	     11.30423498	     66.59515989	     93.08650645
      1.61666670	     -4.26486809	      0.88660624	    -10.36480323	     -0.00269534	      1.27065743	      0.03606638	      5.51087201	      2.73082783	      4.84736488	      1.04903901	      0.01830918	      4.34100686	     17.25496287	     -7.49999987	      5.22554928	      0.08505184	     -7.50402892	      0.30451171	      0.00531473	      6.04867788	     12.64338763	     -7.49999987	      9.20738726	     -1.50949346	     -6.40421078	    -15.32054723	     -5.36402398	      5.93520179	     65.70431565	     81.84137052	    -16.87139535	    -12.25237504	     11.35059951	     65.61465138	     93.38078311
      1.63333330	     -4.15280537	      0.92720641	    -10.48662182	     -0.00271746	      1.27015377	      0.03547309	      5.40881887	      2.65899031	      4.64113375	      1.12531087	      0.01964038	      4.40381170	     17.05694927	     -7.49999987	      5.01800033	      0.16938537	     -7.39605430	      0.31012987	      0.00541279	      5.96184698	     12.67606791	     -7.49999987	      9.14487537	     -1.56403400	     -6.33329975	    -15.13690801	     -5.27822736	      5.92259713	     65.21096891	     80.75100589	    -16.55587421	    -12.16535491	     11.61635746	     64.79790030	     91.75906116
      1.65000000	     -4.20414502	      0.94694982	    -10.55662712	     -0.00556213	      1.27061517	      0.03321765	      5.55194911	      2.62048239	      4.55681226	      1.13992819	      0.01989550	      4.42088233	     17.01647000	     -7.49999987	      5.02231428	      0.22427140	     -7.43827756	      0.32356968	      0.00564736	      5.96894878	     12.68293757	     -7.49999987	      9.05588637	     -1.55156897	     -6.35555894	    -15.06003448	     -5.30205035	      5.89578440	     65.15236035	     80.76552841	    -16.45580527	    -12.11500975	     11.62765221	     64.71341522	     91.78868603
      1.66666670	     -3.98348470	      0.97555397	    -10.69732506	     -0.00393576	      1.27349702	      0.03430055	      5.50457875	      2.48692212	      4.42857252	      1.25752252	      0.02194791	      4.68359510	     16.75443418	     -7.49999987	      4.77242871	      0.32242392	     -7.40684517	      0.32607347	      0.00569106	      5.65772594	     12.76897506	     -7.49999987	      8.90821041	     -1.55313036	     -6.16267144	    -14.58522784	     -5.16341612	      5.88250270	     63.81271732	     79.39962875	    -15.58799792	    -11.84054261	     12.19155810	     62.57939638	     89.52353447
